Coordinates
version=1
nRows=27
nColumns=33
inDegrees=yes

Units are S.I. units (second, meters, Newtons, ...)
Angles are in degrees.

endheader
time	ground_thorax_rot_x	ground_thorax_rot_y	ground_thorax_rot_z	ground_thorax_tx	ground_thorax_ty	ground_thorax_tz	clav_prot_r	clav_elev_r	scapula_abduction_r	scapula_elevation_r	scapula_upward_rot_r	scapula_winging_r	shoulder_elv_r	plane_of_elev_r	axial_rot_r	elbow_flexion_r	pro_sup_r	wrist_flex_r	wrist_dev_r	clav_prot_l	clav_elev_l	scapula_abduction_l	scapula_elevation_l	scapula_upward_rot_l	scapula_winging_l	shoulder_elv_l	plane_of_elev_l	axial_rot_l	elbow_flexion_l	pro_sup_l	wrist_flex_l	wrist_dev_l	
11.5800	90.000000	-90.000000	-90.000000	-49.890689	776.805705	-35.825040	-45.000000	-0.088659	-36.925525	15.548230	-45.000000	-2630.032930	-1690.879979	33.815791	-27.427912	1080.462298	169.935987	12.283534	14.137670	12.205067	45.000000	-45.000000	-45.000000	6.241028	-4287.906302	-2570.919870	136.639272	-180.000000	1070.743950	438.620925	6.434499	-7.922306	
11.5900	90.000000	-90.000000	-90.000000	-52.721633	778.139564	-36.068888	-45.000000	-0.307032	-36.668643	15.359573	-45.000000	-2629.984071	-1690.740322	33.837068	-27.191072	1080.419994	169.782021	12.311989	14.195392	11.915675	45.000000	-45.000000	-45.000000	6.312423	-4288.062295	-2570.830916	136.561680	-180.000000	1070.821733	439.379864	6.512143	-7.921180	
11.6000	90.000000	-90.000000	-90.000000	-55.529225	779.552271	-36.311048	-45.000000	-0.525476	-36.415557	15.164856	-45.000000	-2629.924992	-1690.601665	33.849598	-26.952088	1080.375526	169.593000	12.345813	14.260556	11.626656	45.000000	-45.000000	-45.000000	6.383114	-4288.225200	-2570.750413	136.488500	-180.000000	1070.886653	440.113650	6.598896	-7.928071	
11.6100	90.000000	-90.000000	-90.000000	-58.308853	781.042048	-36.550774	-45.000000	-0.753656	-36.161532	14.962929	-45.000000	-2629.874861	-1690.462465	33.873651	-26.720802	1080.311629	169.370601	12.372713	14.318879	11.340018	45.000000	-45.000000	-45.000000	6.449263	-4288.387592	-2570.674430	136.413303	-180.000000	1070.941479	440.821581	6.686137	-7.933753	
11.6200	90.000000	-90.000000	-90.000000	-61.056652	782.606221	-36.787254	-45.000000	-0.994569	-35.911131	14.749614	-45.000000	-2629.822224	-1690.321722	33.890194	-26.481991	1080.254569	169.116339	12.404439	14.386473	11.056833	45.000000	-45.000000	-45.000000	6.512526	-4288.557866	-2570.606227	136.347277	-180.000000	1070.993005	441.496829	6.778853	-7.948262	
11.6300	90.000000	-90.000000	-90.000000	-63.769470	784.241469	-37.019549	-45.000000	-1.247129	-35.654975	14.524135	-45.000000	-2629.783809	-1690.183600	33.909135	-26.246955	1080.196666	168.835942	12.426936	14.451283	10.778436	45.000000	-45.000000	-45.000000	6.572080	-4288.728247	-2570.543917	136.282924	-180.000000	1071.040507	442.132543	6.870021	-7.965587	
11.6400	90.000000	-90.000000	-90.000000	-66.444647	785.943922	-37.246430	-45.000000	-1.504837	-35.407160	14.283019	-45.000000	-2629.744382	-1690.036568	33.917782	-26.006615	1080.154254	168.532908	12.450861	14.523141	10.504427	45.000000	-45.000000	-45.000000	6.625685	-4288.903216	-2570.485828	136.224857	-180.000000	1071.084082	442.721110	6.964547	-7.987122	
11.6500	90.000000	-90.000000	-90.000000	-69.079631	787.709444	-37.466512	-45.000000	-1.759808	-35.159000	14.038673	-45.000000	-2629.709231	-1689.893609	33.929486	-25.772646	1080.108428	168.210639	12.469603	14.593232	10.234736	45.000000	-45.000000	-45.000000	6.671936	-4289.073641	-2570.429781	136.165506	-180.000000	1071.121696	443.259369	7.057394	-8.010440	
11.6600	90.000000	-90.000000	-90.000000	-71.671741	789.533875	-37.678332	-45.000000	-1.998124	-34.924354	13.794125	-45.000000	-2629.663788	-1689.749035	33.936803	-25.538632	1080.069581	167.868528	12.488813	14.661314	9.968483	45.000000	-45.000000	-45.000000	6.710174	-4289.236718	-2570.376660	136.103136	-180.000000	1071.152079	443.745631	7.151580	-8.032044	
11.6700	90.000000	-90.000000	-90.000000	-74.217867	791.413170	-37.880680	-45.000000	-2.226793	-34.692715	13.553181	-45.000000	-2629.618568	-1689.611065	33.949206	-25.313838	1080.027172	167.506910	12.504527	14.725383	9.706223	45.000000	-45.000000	-45.000000	6.737427	-4289.394050	-2570.322739	136.039383	-180.000000	1071.175322	444.180404	7.244118	-8.052839	
11.6800	90.000000	-90.000000	-90.000000	-76.714592	793.343630	-38.072637	-45.000000	-2.426376	-34.475272	13.319298	-45.000000	-2629.556003	-1689.471724	33.959619	-25.094066	1079.979744	167.123641	12.521966	14.780178	9.447475	45.000000	-45.000000	-45.000000	6.757263	-4289.536968	-2570.272366	135.963364	-180.000000	1071.188043	444.566287	7.337119	-8.066753	
11.6900	90.000000	-90.000000	-90.000000	-79.158202	795.321855	-38.253721	-45.000000	-2.590703	-34.263568	13.094226	-45.000000	-2629.481132	-1689.338195	33.968670	-24.879942	1079.926966	166.714171	12.537606	14.831148	9.191536	45.000000	-45.000000	-45.000000	6.773277	-4289.672058	-2570.226890	135.880167	-180.000000	1071.190779	444.903017	7.428972	-8.080134	
11.7000	90.000000	-90.000000	-90.000000	-81.545203	797.345033	-38.423839	-45.000000	-2.706618	-34.065580	12.881982	-45.000000	-2629.383363	-1689.207579	33.972023	-24.669727	1079.868522	166.272481	12.551486	14.872927	8.937869	45.000000	-45.000000	-45.000000	6.787466	-4289.793291	-2570.189574	135.784035	-180.000000	1071.182470	445.190790	7.519630	-8.088858	
11.7100	90.000000	-90.000000	-90.000000	-83.872399	799.410731	-38.583349	-45.000000	-2.810982	-33.866513	12.672639	-45.000000	-2629.287438	-1689.087280	33.973347	-24.461794	1079.815800	165.795690	12.561650	14.915745	8.689383	45.000000	-45.000000	-45.000000	6.796758	-4289.918539	-2570.157292	135.694277	-180.000000	1071.169248	445.425073	7.608036	-8.102216	
11.7200	90.000000	-90.000000	-90.000000	-86.137424	801.516980	-38.732962	-45.000000	-2.921515	-33.668127	12.466044	-45.000000	-2629.192617	-1688.969664	33.976108	-24.262543	1079.759516	165.285068	12.572631	14.955988	8.449382	45.000000	-45.000000	-45.000000	6.802326	-4290.042132	-2570.132742	135.605875	-180.000000	1071.148494	445.600957	7.694786	-8.116738	
11.7300	90.000000	-90.000000	-90.000000	-88.338492	803.661779	-38.873679	-45.000000	-3.047485	-33.465496	12.257089	-45.000000	-2629.110458	-1688.861037	33.981223	-24.067792	1079.710637	164.740266	12.582344	15.000209	8.217392	45.000000	-45.000000	-45.000000	6.798841	-4290.176650	-2570.111422	135.532601	-180.000000	1071.123068	445.711976	7.779110	-8.138212	
11.7400	90.000000	-90.000000	-90.000000	-90.474515	805.842833	-39.006670	-45.000000	-3.198429	-33.260350	12.045237	-45.000000	-2629.040481	-1688.759434	33.989675	-23.881835	1079.664024	164.162453	12.593017	15.045619	7.994915	45.000000	-45.000000	-45.000000	6.784521	-4290.318895	-2570.094285	135.472241	-180.000000	1071.092963	445.751697	7.860341	-8.163305	
11.7500	90.000000	-90.000000	-90.000000	-92.544577	808.056971	-39.133149	-45.000000	-3.387051	-33.048790	11.818370	-45.000000	-2628.995405	-1688.663855	33.997692	-23.699028	1079.633617	163.554932	12.601251	15.094549	7.782566	45.000000	-45.000000	-45.000000	6.756775	-4290.478312	-2570.077203	135.432431	-180.000000	1071.064124	445.709832	7.936360	-8.191721	
11.7600	90.000000	-90.000000	-90.000000	-94.547782	810.299911	-39.254228	-45.000000	-3.590489	-32.840976	11.586926	-45.000000	-2628.957250	-1688.569787	34.006483	-23.526536	1079.601062	162.920561	12.609763	15.139177	7.578721	45.000000	-45.000000	-45.000000	6.721832	-4290.641380	-2570.061777	135.397212	-180.000000	1071.029938	445.578350	8.006621	-8.214465	
11.7700	90.000000	-90.000000	-90.000000	-96.482834	812.566062	-39.370942	-45.000000	-3.776327	-32.644238	11.357537	-45.000000	-2628.916355	-1688.483681	34.012085	-23.357826	1079.568515	162.257805	12.615386	15.178633	7.378544	45.000000	-45.000000	-45.000000	6.682440	-4290.809308	-2570.047238	135.364640	-180.000000	1070.986974	445.350567	8.070746	-8.228493	
11.7800	90.000000	-90.000000	-90.000000	-98.347907	814.848609	-39.484370	-45.000000	-3.951842	-32.454837	11.132848	-45.000000	-2628.874307	-1688.405616	34.015361	-23.194678	1079.532790	161.568670	12.619065	15.211818	7.182460	45.000000	-45.000000	-45.000000	6.639833	-4290.981563	-2570.031943	135.336055	-180.000000	1070.936372	445.017568	8.127298	-8.230610	
11.7900	90.000000	-90.000000	-90.000000	-100.140475	817.139525	-39.595937	-45.000000	-4.123379	-32.275808	10.913168	-45.000000	-2628.833012	-1688.334434	34.018361	-23.039331	1079.491121	160.860664	12.621757	15.238500	6.991509	45.000000	-45.000000	-45.000000	6.597934	-4291.156663	-2570.018273	135.307157	-180.000000	1070.874746	444.571412	8.176275	-8.218264	
11.8000	90.000000	-90.000000	-90.000000	-101.857561	819.429936	-39.707642	-45.000000	-4.307998	-32.103142	10.697548	-45.000000	-2628.798946	-1688.263506	34.025345	-22.894945	1079.442692	160.145635	12.627067	15.260003	6.807563	45.000000	-45.000000	-45.000000	6.559280	-4291.335326	-2570.007138	135.279894	-180.000000	1070.801668	444.007096	8.217489	-8.191214	
11.8100	90.000000	-90.000000	-90.000000	-103.495933	821.710104	-39.822265	-45.000000	-4.498074	-31.940186	10.485511	-45.000000	-2628.770668	-1688.191989	34.034084	-22.763446	1079.388428	159.435314	12.635774	15.277425	6.630389	45.000000	-45.000000	-45.000000	6.524452	-4291.516705	-2569.999792	135.251063	-180.000000	1070.716359	443.325627	8.249836	-8.151056	
11.8200	90.000000	-90.000000	-90.000000	-105.052724	823.969793	-39.943241	-45.000000	-4.688182	-31.784936	10.277437	-45.000000	-2628.747225	-1688.119418	34.042321	-22.645720	1079.331553	158.738900	12.648704	15.291044	6.459237	45.000000	-45.000000	-45.000000	6.490910	-4291.700248	-2569.994482	135.225604	-180.000000	1070.621966	442.532794	8.270734	-8.099511	
11.8300	90.000000	-90.000000	-90.000000	-106.525493	826.197775	-40.074308	-45.000000	-4.874894	-31.641146	10.075274	-45.000000	-2628.726322	-1688.050169	34.049360	-22.546186	1079.269165	158.063882	12.666715	15.301129	6.294891	45.000000	-45.000000	-45.000000	6.460222	-4291.883947	-2569.992640	135.200092	-180.000000	1070.518129	441.639697	8.278992	-8.038970	
11.8400	90.000000	-90.000000	-90.000000	-107.913051	828.382642	-40.218873	-45.000000	-5.053198	-31.507511	9.878886	-45.000000	-2628.707310	-1687.984172	34.053403	-22.464170	1079.205776	157.414887	12.689226	15.308158	6.136790	45.000000	-45.000000	-45.000000	6.429883	-4292.067439	-2569.992931	135.179896	-180.000000	1070.409329	440.660671	8.272759	-7.972437	
